<svg xmlns="http://www.w3.org/2000/svg" xmlns:xlink="http://www.w3.org/1999/xlink" version="1.1" x="0px" y="0px" viewBox="0 0 100 125" style="enable-background:new 0 0 100 100;" xml:space="preserve"><g><g><path d="M49.999,50.06c8.56,0,15.421-9.707,15.421-18.35c0-8.643-6.94-15.65-15.5-15.65s-15.5,7.007-15.5,15.65    C34.421,40.353,41.439,50.06,49.999,50.06z"/><path d="M55.737,56.979H44.21c-12.266,0-22.21,9.93-22.21,22.18l0.053,2.623c0,3.422,2.778,6.197,6.206,6.197h43.536    c3.427,0,6.206-2.775,6.206-6.197l-0.053-2.623C77.947,66.909,68.004,56.979,55.737,56.979z"/></g></g><text x="0" y="115" fill="#000000" font-size="5px" font-weight="bold" font-family="'Helvetica Neue', Helvetica, Arial-Unicode, Arial, Sans-serif">Created by Luis Rodrigues</text><text x="0" y="120" fill="#000000" font-size="5px" font-weight="bold" font-family="'Helvetica Neue', Helvetica, Arial-Unicode, Arial, Sans-serif">from the Noun Project</text></svg>