<svg xmlns="http://www.w3.org/2000/svg" xmlns:xlink="http://www.w3.org/1999/xlink" version="1.1" x="0px" y="0px" viewBox="0 0 100 125" enable-background="new 0 0 100 100" xml:space="preserve"><path d="M84.18,76.999L51.722,20.781c-0.357-0.619-1.018-1-1.732-1s-1.375,0.381-1.732,1L15.674,77.219  c-0.356,0.619-0.356,1.381,0,2c0.357,0.619,1.018,1,1.732,1h65.168c0.007,0,0.015,0,0.02,0c1.105,0,2-0.896,2-2  C84.594,77.76,84.439,77.337,84.18,76.999z M20.87,76.219l29.119-50.438L79.11,76.219H20.87z M49.989,65.592c-1.104,0-2,0.896-2,2  v1.073c0,1.104,0.896,2,2,2s2-0.896,2-2v-1.073C51.989,66.488,51.094,65.592,49.989,65.592z M47.989,42.142V59.56  c0,1.104,0.896,2,2,2s2-0.896,2-2V42.142c0-1.104-0.896-2-2-2S47.989,41.038,47.989,42.142z"/><text x="0" y="115" fill="#000000" font-size="5px" font-weight="bold" font-family="'Helvetica Neue', Helvetica, Arial-Unicode, Arial, Sans-serif">Created by Kidiladon</text><text x="0" y="120" fill="#000000" font-size="5px" font-weight="bold" font-family="'Helvetica Neue', Helvetica, Arial-Unicode, Arial, Sans-serif">from the Noun Project</text></svg>